<svg version="1.2" xmlns="http://www.w3.org/2000/svg" viewBox="0 0 512 512" width="512" height="512"><style>.a{fill:#f6bb42}.b{fill:#ffce54}.c{fill:#47dac0}.d{fill:#656d78}</style><path class="a" d="m96 282.6h-64c-5.9 0-10.7 4.8-10.7 10.7 0 5.9 4.8 10.7 10.7 10.7h64c5.9 0 10.7-4.8 10.7-10.7 0-5.9-4.8-10.7-10.7-10.7z"/><path class="a" d="m480 282.6h-64c-5.9 0-10.7 4.8-10.7 10.7 0 5.9 4.8 10.7 10.7 10.7h64c5.9 0 10.6-4.8 10.6-10.7 0-5.9-4.7-10.7-10.6-10.7z"/><path class="b" d="m406.8 127.4l-45.2 45.2c-4.2 4.2-4.2 11 0 15.1 4.1 4.2 10.9 4.2 15.1 0l45.2-45.2c4.2-4.2 4.2-10.9 0-15.1-4.1-4.2-10.9-4.2-15.1 0z"/><path class="a" d="m245.3 69.3v64c0 5.9 4.8 10.7 10.7 10.7 5.9 0 10.7-4.8 10.7-10.7v-64c0-5.9-4.8-10.6-10.7-10.6-5.9 0-10.7 4.7-10.7 10.6z"/><path class="b" d="m90.1 142.5l45.2 45.2c4.2 4.2 10.9 4.2 15.1 0 4.2-4.1 4.2-10.9 0-15.1l-45.3-45.2c-4.1-4.2-10.9-4.2-15 0-4.2 4.2-4.2 10.9 0 15.1z"/><path class="b" d="m146.4 336c-5.3-13.6-8-27.9-8-42.7 0-64.8 52.8-117.5 117.6-117.5 64.8 0 117.6 52.7 117.6 117.5 0 14.8-2.7 29.1-8 42.7z"/><path class="a" d="m256 165.1c-70.8 0-128.2 57.4-128.2 128.2 0 19.1 4.1 37.1 11.6 53.3h233.2c7.5-16.2 11.6-34.2 11.6-53.3 0-70.8-57.4-128.2-128.2-128.2zm102 160.2h-204c-3.3-10.3-4.9-21-4.9-32 0-28.5 11.1-55.4 31.3-75.6 20.2-20.1 47-31.3 75.6-31.3 28.6 0 55.4 11.2 75.6 31.3 20.2 20.2 31.3 47.1 31.3 75.6 0 11-1.7 21.7-4.9 32z"/><path class="c" d="m286.2 393.7l-22.7-22.6c-1.9-1.9-4.6-3.1-7.5-3.1-2.9 0-5.6 1.2-7.5 3.1l-22.7 22.6c-4.1 4.2-4.1 10.9 0 15.1 2.1 2.1 4.8 3.1 7.6 3.1 2.7 0 5.4-1 7.5-3.1l4.4-4.4v38.2c0 5.9 4.8 10.7 10.7 10.7 5.9 0 10.7-4.8 10.7-10.7v-38.2l4.4 4.4c2 2.1 4.8 3.2 7.5 3.2 2.7 0 5.5-1.1 7.6-3.2 4.1-4.1 4.1-10.9 0-15.1z"/><path class="d" d="m501.3 325.3h-490.6c-5.9 0-10.7 4.8-10.7 10.7 0 5.9 4.8 10.6 10.7 10.6h490.6c5.9 0 10.7-4.7 10.7-10.6 0-5.9-4.8-10.7-10.7-10.7z"/></svg>